<svg xmlns="http://www.w3.org/2000/svg" viewBox="0 0 300 85.7" role="img" aria-labelledby="title">
  <title id="title">Trees logo</title>
  <path fill="#fff" d="M244.5 65c.3 13.5 10.6 20.7 28.6 20.7 16.5 0 27-7.1 27-18.5s-10.1-14.9-20.1-17.1c-10-2.2-18.8-3.7-18.8-10.2 0-4.3 4.3-6.9 10.7-6.9 8 0 11.9 2.9 12.2 10h14.7c0-13.1-9.5-19.9-26.4-19.9-16.1 0-26.5 7.2-26.5 18 0 13.1 12.8 15.8 23.7 18.2 8.1 1.8 15.3 3.4 15.3 9.3 0 4.6-4.6 7.4-11.6 7.4-8.9 0-13.5-3.6-13.5-10.7L244.5 65zM191.4 47.9c-.1-8.3 6.6-15 14.9-15.1h.5c8 0 14.3 5.2 15 15.2l-30.4-.1zm-15 6c0 19.6 10.7 31.7 31.1 31.7 15.4 0 25.7-6.5 29.2-19.4h-15.6c-1.7 5.9-7.3 9.8-13.4 9.3-10.3 0-15.8-7.2-16-17.1h45.2c.4-8.1-1.4-16.2-5.2-23.3-5.3-8.2-14.6-12.8-24.3-12.2-16.3-.9-30.3 11.6-31.1 28-.1 1.1-.1 2.2 0 3.3M123.3 47.9c-.1-8.3 6.5-15.1 14.8-15.2h.6c8 0 14.3 5.2 15 15.2l-30.4-.1zm-15 5.9c0 19.6 10.7 31.7 31.2 31.7 15.4 0 25.7-6.5 29.2-19.4h-15.6c-1.7 5.9-7.3 9.8-13.4 9.3-10.4 0-15.8-7.2-16-17.1h45.2c.5-8-1.3-16.1-5.1-23.2-5.3-8.2-14.6-12.8-24.3-12.2-16.3-.9-30.3 11.7-31.2 28-.1 1.1-.1 2.1 0 3.2M67.2 84H82V57.8c0-14.6 4.3-22.1 16.6-22.1 2.2 0 4.3.2 6.4.6v-12c-2.3-.4-4.7-.6-7-.6-6.9-.1-13.4 3.5-16.9 9.5v-8.9H67.2V84zM27.5 84h15.7V12.2h27.5V0H0v12.2h27.5V84z"/>
</svg>